<svg xmlns="http://www.w3.org/2000/svg" viewBox="0 0 645.7 133.6">
    <path fill="#FFF" d="M40 40v9.2h15.4v43.4h9.3V49.2H80V40H40zM105.1 40c-3.1 0-5.8.4-8 1.1-2.2.7-4 1.7-5.5 3-1.4 1.3-2.5 2.8-3.2 4.6-.7 1.8-1 3.7-1 5.8 0 5.9 2.5 9.8 7.4 11.9-2.4 1-4.3 2.6-5.6 4.6-1.3 2-2 4.5-2 7.5 0 2 .3 3.9 1 5.7.6 1.8 1.7 3.3 3.1 4.6 1.4 1.3 3.2 2.3 5.5 3 2.2.7 4.9 1.1 8 1.1h26.7v-9.2h-26.7c-2.7 0-4.7-.6-6-1.8-1.3-1.2-1.9-2.8-1.9-4.9 0-4.3 2.7-6.4 8-6.4H131v-8.3h-25.9c-5.4 0-8-2.1-8-6.2 0-2 .6-3.6 1.9-4.8 1.2-1.2 3.3-1.8 6.1-1.8h26.4V40h-26.4zM143.7 40v34.5c0 2.7.4 5.1 1.1 7.3.7 2.2 1.8 4.1 3.4 5.7 1.6 1.6 3.6 2.9 6 3.8 2.5.9 5.4 1.4 8.9 1.4h21v-9.2h-20.4c-2.1 0-3.8-.2-5.2-.7-1.4-.5-2.5-1.1-3.3-1.9-.8-.8-1.4-1.8-1.8-2.9-.3-1.1-.5-2.3-.5-3.5V40h-9.2zM191.6 40v34.5c0 2.7.4 5.1 1.1 7.3.7 2.2 1.8 4.1 3.4 5.7 1.6 1.6 3.6 2.9 6 3.8 2.5.9 5.4 1.4 8.9 1.4h21v-9.2h-20.4c-2.1 0-3.8-.2-5.2-.7-1.4-.5-2.5-1.1-3.3-1.9-.8-.8-1.4-1.8-1.8-2.9-.3-1.1-.5-2.3-.5-3.5V40h-9.2zM239.7 40v35.9c0 11.2 5.7 16.8 17 16.8h11.1c5.7 0 9.9-1.4 12.8-4.2 2.9-2.8 4.3-7 4.3-12.6V40h-9v35.2c0 2.7-.7 4.7-2.1 6.1-1.4 1.4-3.6 2.1-6.6 2.1h-9.4c-3.1 0-5.3-.7-6.7-2.1-1.4-1.4-2.1-3.5-2.1-6.1V40h-9.3zM297.8 40v9.2h28.9c2.5 0 4.4.7 5.6 2.1 1.2 1.4 1.8 3 1.8 4.9 0 .9-.1 1.8-.4 2.7-.3.9-.7 1.7-1.3 2.3-.6.7-1.3 1.2-2.3 1.6-.9.4-2.1.6-3.4.6h-20.5c-2.9 0-5 .7-6.3 2-1.3 1.3-2 3.4-2 6.4v20.8h9.2v-19c0-.9.4-1.3 1.3-1.3h13.7l12 20.4h10.2l-12.2-21.1c2-.6 3.7-1.4 5.1-2.5 1.4-1.1 2.5-2.4 3.4-3.8.9-1.4 1.5-3 2-4.6.4-1.6.6-3.3.6-5 0-2.1-.3-4.1-1-6-.7-1.9-1.7-3.6-3-5-1.4-1.4-3.1-2.6-5.3-3.4-2.1-.9-4.7-1.3-7.6-1.3h-28.5zM354.4 40v52.7h9.2V40h-9.2zM376.7 40v35.9c0 11.2 5.7 16.8 17 16.8h11.1c5.7 0 9.9-1.4 12.8-4.2 2.9-2.8 4.3-7 4.3-12.6V40h-9v35.2c0 2.7-.7 4.7-2.1 6.1-1.4 1.4-3.6 2.1-6.6 2.1h-9.4c-3.1 0-5.3-.7-6.7-2.1-1.4-1.4-2.1-3.5-2.1-6.1V40h-9.3zM452.5 50.2c.3-.7.6-1.2 1.1-1.6.5-.4 1.1-.6 1.8-.6.8 0 1.4.3 2 .8.5.5.8 1.3.8 2.2v31c0 3.5 1 6.3 2.9 8.4 1.9 2.1 4.8 3.2 8.7 3.2 3.5 0 6.2-.9 8.1-2.6 1.9-1.7 3.3-4.1 4.4-7.1l12.8-33.6c.3-.7.6-1.2 1.1-1.6.5-.4 1.1-.6 1.8-.6.8 0 1.4.3 1.9.8s.7 1.3.7 2.2v41.7h9.3V50.5c0-3.4-1-6.2-2.9-8.3-2-2.1-4.9-3.2-8.8-3.2-3.5 0-6.2.9-8.1 2.6-1.8 1.7-3.3 4.1-4.3 7.1L473 82.4c-.5 1.5-1.5 2.2-3 2.2-.8 0-1.4-.3-1.9-.8s-.7-1.3-.7-2.1V50.5c0-3.4-1-6.2-2.9-8.3s-4.9-3.2-8.8-3.2c-3.5 0-6.2.9-8.1 2.6-1.8 1.7-3.3 4.1-4.3 7.1l-16.3 44h9.8l15.7-42.5zM522 82v10.6h8.9V82H522zM542.6 51.5v41.2h8.3V51.5h-8.3zm0-15.6v9.6h8.3v-9.6h-8.3zM579.4 51.5c-5.5 0-9.9 1.7-13.1 5.1-3.2 3.4-4.8 8.6-4.8 15.5 0 7 1.6 12.1 4.8 15.5 3.2 3.4 7.6 5.1 13.1 5.1h8.7c5.5 0 9.8-1.7 13-5.1 3.2-3.4 4.8-8.6 4.8-15.5s-1.6-12.1-4.8-15.5c-3.2-3.4-7.6-5.1-13-5.1h-8.7zm7.8 7.9c3.6 0 6.2 1 7.8 3 1.6 2 2.5 5.2 2.5 9.7 0 4.5-.8 7.7-2.5 9.6-1.6 1.9-4.3 2.9-7.8 2.9h-7.1c-3.6 0-6.2-1-7.8-2.9-1.6-2-2.5-5.2-2.5-9.6 0-4.5.8-7.7 2.5-9.7 1.6-2 4.3-3 7.8-3h7.1z"/>
</svg>
